# Blender v2.93.5 OBJ File: 'ambient.blend'
# www.blender.org
mtllib toten.mtl
o totus_Cube.001
v -0.467902 2.602669 3.792973
v 1.756904 -3.503000 3.452509
v -2.360454 2.602669 3.146251
v -3.911644 -3.503001 1.515458
v 0.084380 3.643306 2.176786
v 3.721228 -1.398604 -2.295847
v -1.808172 3.643306 1.530065
v -1.947320 -1.398604 -4.232897
v 0.519245 -1.117048 2.289602
v -1.421442 0.389776 -0.987049
v -2.221137 -1.117049 1.353161
v 1.318940 0.389776 -0.050608
v 0.145901 3.272626 5.217902
v -3.717920 3.272625 3.897560
v 0.627877 3.874645 1.961270
v -2.106120 3.874645 1.027011
v -1.123314 5.211609 4.940602
v -2.544428 5.211609 4.454980
v -1.086248 7.238386 4.473803
v -2.253437 7.303601 3.913941
v 0.787311 -3.521877 0.384245
v -1.267110 -3.521877 -0.317789
v 1.386829 -2.392235 -1.370172
v -0.667591 -2.392235 -2.072207
v 0.956377 -4.379990 -0.110507
v -1.098043 -4.379990 -0.812542
v 1.555895 -4.250348 -1.864925
v -0.498525 -4.250348 -2.566960
vt 0.428724 0.940551
vt 0.522980 0.940794
vt 0.543879 0.961801
vt 0.407717 0.961451
vt 0.877608 0.700194
vt 0.856658 0.992729
vt 0.747489 0.994841
vt 0.737224 0.699569
vt 0.619078 0.626885
vt 0.579891 1.101760
vt 0.439837 1.102305
vt 0.429803 0.628716
vt 0.722856 0.402154
vt 0.319914 0.405020
vt 0.450664 0.289749
vt 0.596149 0.289812
vt 0.399463 0.499069
vt 0.363414 0.822163
vt 0.275028 0.822199
vt 0.263002 0.501396
vt 0.309947 0.626725
vt 0.291997 0.950208
vt 0.156935 0.951353
vt 0.155547 0.629059
vt 0.357723 0.448998
vt 0.054149 0.451737
vt 0.485571 0.205867
vt 0.206338 0.206119
vt 0.723077 0.402669
vt 0.319800 0.404917
vt 0.996089 0.412340
vt 0.618389 0.413834
vt 0.436478 0.288651
vt 0.668679 0.285013
vt 0.639129 0.524739
vt 0.497967 0.773804
vt 0.399142 0.166176
vt 0.289637 0.070074
vt 0.352356 0.020986
vt 0.352356 0.213418
vt 0.054003 0.109234
vt 0.084517 0.020054
vt 0.111125 0.007012
vt 0.111125 0.164735
vt 0.049396 0.147042
vt 0.183939 0.239757
vt 0.014045 0.289839
vt 0.023629 0.132407
vt 0.223258 0.634775
vt 0.289805 0.423223
vt 0.560216 0.500112
vt 0.487587 0.716064
vt 0.017430 0.560660
vt 0.191690 0.467514
vt 0.233204 0.889803
vt 0.067306 0.757171
vt 0.490049 0.741002
vt 0.253071 0.756740
vt 0.226431 0.626340
vt 0.495839 0.623014
vt 0.286739 0.530130
vt 0.502813 0.528985
vt 0.455467 0.954014
vt 0.343625 0.954862
vt 0.890912 0.362932
vt 0.726906 0.360767
vt 0.727359 0.281479
vt 0.900372 0.282341
vt 0.277523 0.082543
vt 0.379826 0.080799
vt 0.358592 0.448927
vt 0.054995 0.451167
vt 0.143568 0.275172
vt 0.289051 0.276002
vt 0.450720 0.160400
vt 0.596205 0.160462
vt 0.275196 0.003276
vt 0.377499 0.001532
vt 0.146903 0.210136
vt 0.282954 0.207716
vn 0.1683 -0.8540 -0.4924
vn -0.9590 0.0931 -0.2677
vn 0.2561 0.6104 -0.7496
vn -0.2928 -0.4241 0.8570
vn 0.9223 0.0931 0.3751
vn 0.7213 0.5064 0.4726
vn -0.3103 0.2816 0.9080
vn 0.1697 0.8513 -0.4965
vn -0.8596 0.5064 -0.0677
vn -0.9107 0.3319 -0.2459
vn -0.1628 -0.8640 0.4764
vn 0.6757 -0.7300 -0.1026
vn -0.4716 -0.7300 -0.4947
vn -0.3574 0.2487 0.9002
vn 0.8698 0.3377 0.3597
vn -0.3224 -0.0761 0.9435
vn 0.2832 0.6431 -0.7114
vn -0.9463 0.0000 -0.3234
vn -0.0024 -1.0000 0.0069
vn 0.4205 -0.8766 -0.2342
vn -0.1892 -0.8766 -0.4425
vn 0.3113 0.2709 -0.9109
vn -0.2761 -0.5203 0.8081
vn 0.9463 0.0000 0.3234
usemtl totus
s off
f 5/1/1 7/2/1 16/3/1 15/4/1
f 11/5/2 3/6/2 7/7/2 10/8/2
f 10/9/3 7/10/3 5/11/3 12/12/3
f 8/13/1 6/14/1 23/15/1 24/16/1
f 9/17/4 1/18/4 3/19/4 11/20/4
f 12/21/5 5/22/5 1/23/5 9/24/5
f 6/25/6 12/21/6 9/24/6 2/26/6
f 2/27/7 9/17/7 11/20/7 4/28/7
f 8/29/8 10/9/8 12/12/8 6/30/8
f 4/31/9 11/5/9 10/8/9 8/32/9
f 16/33/10 14/34/10 18/35/10 20/36/10
f 3/37/11 1/38/11 13/39/11 14/40/11
f 1/41/12 5/42/12 15/43/12 13/44/12
f 7/45/13 3/46/13 14/47/13 16/48/13
f 17/49/14 19/50/14 20/51/14 18/52/14
f 13/53/15 15/54/15 19/55/15 17/56/15
f 14/57/16 13/58/16 17/59/16 18/60/16
f 15/61/17 16/62/17 20/63/17 19/64/17
f 22/65/18 24/66/18 28/67/18 26/68/18
f 2/27/19 4/28/19 22/69/19 21/70/19
f 6/71/20 2/72/20 21/73/20 23/74/20
f 4/31/21 8/32/21 24/66/21 22/65/21
f 24/16/22 23/15/22 27/75/22 28/76/22
f 21/70/23 22/69/23 26/77/23 25/78/23
f 23/74/24 21/73/24 25/79/24 27/80/24
